<?xml version="1.0" encoding="UTF-8"?>
<svg width="737px" height="207px" viewBox="0 0 737 207" version="1.1" xmlns="http://www.w3.org/2000/svg" xmlns:xlink="http://www.w3.org/1999/xlink">
    <!-- Generator: Sketch 55.2 (78181) - https://sketchapp.com -->
    <title>url skeleton</title>
    <desc>Created with Sketch.</desc>
    <defs>
        <path d="M0,8.00907287 C0,3.58578406 3.5814129,0 7.99617915,0 L643.003821,0 C647.419989,0 651,3.5800004 651,8.00907287 L651,145.990927 C651,150.414216 647.418587,154 643.003821,154 L7.99617915,154 C3.58001135,154 0,150.42 0,145.990927 L0,8.00907287 Z" id="path-1"></path>
    </defs>
    <g id="url-skeleton" stroke="none" stroke-width="1" fill="none" fill-rule="evenodd">
        <g id="Group-6" transform="translate(40.000000, 25.000000)">
            <mask id="mask-2" fill="white">
                <use xlink:href="#path-1"></use>
            </mask>
            <path stroke="#F1F5FB" d="M-0.5,8.00907287 C-0.5,3.31029312 3.30461955,-0.5 7.99617915,-0.5 L643.003821,-0.5 C647.698251,-0.5 651.5,3.30597995 651.5,8.00907287 L651.5,145.990927 C651.5,150.689707 647.69538,154.5 643.003821,154.5 L7.99617915,154.5 C3.30174911,154.5 -0.5,150.69402 -0.5,145.990927 L-0.5,8.00907287 Z"></path>
        </g>
        <rect id="Rectangle" fill="#F1F5FB" x="347" y="61" width="295" height="22" rx="11"></rect>
        <rect id="Rectangle" fill="#F1F5FB" x="345" y="121" width="322" height="22" rx="11"></rect>
        <rect id="Rectangle" fill="#F1F5FB" x="347" y="93" width="142" height="18" rx="9"></rect>
        <path d="M48,25 L323,25 L323,179 L48,179 C43.581722,179 40,175.418278 40,171 L40,33 C40,28.581722 43.581722,25 48,25 Z M222.05,64.05 L219.95,61.95 C216.8,58.8 212.45,57 207.95,57 C203.45,57 199.25,58.8 196.1,61.95 L180.95,77.1 C177.8,80.25 176,84.45 176,88.95 C176,92.4 177.05,95.7 179,98.55 L178.7,99 C175.85,97.05 172.55,96 169.1,96 C164.6,96 160.4,97.8 157.25,100.95 L141.95,116.1 C138.8,119.25 137,123.45 137,127.95 C137,132.45 138.8,136.65 141.95,139.8 L144.2,141.9 C147.35,145.05 151.55,146.85 156.05,146.85 C160.55,146.85 164.75,145.05 167.9,141.9 L183.05,126.75 C186.2,123.6 188,119.4 188,114.9 C188,111.45 186.95,108.15 185,105.3 L185.45,104.85 C188.3,106.8 191.6,107.85 195.05,107.85 C199.55,107.85 203.75,106.05 206.9,102.9 L222.05,87.75 C225.2,84.6 227,80.4 227,75.9 C227,71.4 225.2,67.2 222.05,64.05 Z M180.95,124.8 L165.8,139.95 C163.1,142.65 159.5,144 156.05,144 C152.45,144 149,142.65 146.3,139.95 L144.05,137.7 C138.65,132.3 138.65,123.6 144.05,118.2 L159.2,103.05 C161.9,100.35 165.5,99 168.95,99 C171.5,99 174.2,99.75 176.45,101.25 L174.2,103.5 C172.55,102.6 170.75,102.15 168.95,102.15 C166.25,102.15 163.4,103.2 161.3,105.3 L146.15,120.45 C141.95,124.65 141.95,131.4 146.15,135.6 L148.4,137.85 C150.5,139.95 153.2,141 156.05,141 C158.75,141 161.6,139.95 163.7,137.85 L178.85,122.7 C182.3,119.25 182.9,114 180.65,109.95 L182.9,107.7 C186.2,112.8 185.6,120.15 180.95,124.8 Z M161.45,122.55 C162.35,123.45 163.4,123.9 164.6,123.9 C165.8,123.9 166.85,123.45 167.75,122.55 L178.25,112.05 C178.7,112.95 178.85,114 178.85,115.05 C178.85,117.15 178.1,119.1 176.6,120.6 L161.45,135.6 C159.95,137.1 158,137.85 156.05,137.85 C153.95,137.85 152,137.1 150.5,135.6 L148.4,133.5 C145.4,130.5 145.4,125.55 148.4,122.55 L163.55,107.4 C165.05,105.9 167,105.15 169.1,105.15 C170.15,105.15 171.2,105.3 172.1,105.75 L161.6,116.25 C159.65,117.9 159.65,120.75 161.45,122.55 Z M183.05,103.05 L180.95,105.15 L178.85,107.4 L176.6,109.5 L165.65,120.45 C165.35,120.75 164.9,120.9 164.6,120.9 C164.15,120.9 163.85,120.75 163.55,120.45 C162.95,119.85 162.95,118.95 163.55,118.35 L174.5,107.4 L176.6,105.3 L178.85,103.2 L180.95,101.1 L183.05,99 L185.15,96.75 L187.25,94.65 L198.2,83.7 C198.5,83.4 198.95,83.25 199.25,83.25 C199.7,83.25 200,83.4 200.3,83.7 C200.9,84.3 200.9,85.2 200.3,85.8 L189.5,96.6 L187.4,98.7 L183.05,103.05 Z M202.55,81.45 C201.65,80.55 200.6,80.1 199.4,80.1 C198.2,80.1 197.15,80.55 196.25,81.45 L185.75,91.95 C184.55,89.1 185.15,85.8 187.4,83.55 L202.55,68.4 C204.05,66.9 206,66.15 208.1,66.15 C210.05,66 212,66.9 213.5,68.4 L215.6,70.5 C217.1,72 217.85,73.95 217.85,76.05 C217.85,78.15 217.1,80.1 215.6,81.6 L200.45,96.6 C198.95,98.1 197,98.85 194.9,98.85 C193.85,98.85 192.8,98.7 191.9,98.25 L202.4,87.75 C204.35,86.1 204.35,83.25 202.55,81.45 Z M219.95,85.8 L204.8,100.95 C202.1,103.65 198.5,105 195.05,105 C192.5,105 189.8,104.25 187.55,102.75 L189.8,100.5 C191.45,101.4 193.25,101.85 195.05,101.85 C197.75,101.85 200.6,100.8 202.7,98.7 L217.85,83.55 C222.05,79.35 222.05,72.6 217.85,68.4 L215.6,66.15 C213.5,64.05 210.8,63 207.95,63 C205.25,63 202.4,64.05 200.3,66.15 L185.15,81.45 C181.7,84.9 181.1,90.15 183.35,94.2 L181.1,96.45 C177.65,91.05 178.25,83.85 182.9,79.2 L198.2,64.05 C200.9,61.35 204.5,60 207.95,60 C211.55,60 215,61.35 217.7,64.05 L219.95,66.15 C225.35,71.55 225.35,80.4 219.95,85.8 Z" id="Combined-Shape" fill="#F1F5FB"></path>
    </g>
</svg>