<?xml version="1.0" encoding="UTF-8"?>
<svg width="676px" height="546px" viewBox="0 0 676 546" version="1.1" xmlns="http://www.w3.org/2000/svg" xmlns:xlink="http://www.w3.org/1999/xlink">
    <!-- Generator: Sketch 55.2 (78181) - https://sketchapp.com -->
    <title>third partyembed skeleton generic</title>
    <desc>Created with Sketch.</desc>
    <g id="third-partyembed-skeleton-generic" stroke="none" stroke-width="1" fill="none" fill-rule="evenodd">
        <path d="M28,16 L648,16 C656.836556,16 664,23.163444 664,32 L664,366 C664,374.836556 656.836556,382 648,382 L28,382 C19.163444,382 12,374.836556 12,366 L12,32 C12,23.163444 19.163444,16 28,16 Z M94,300 L94,98 L192,98 C193.656854,98 195,96.6568542 195,95 C195,93.3431458 193.656854,92 192,92 L91,92 C90.1715729,92 89.4215729,92.3357864 88.8786797,92.8786797 C88.3357864,93.4215729 88,94.1715729 88,95 L88,303 C88,303.828427 88.3357864,304.578427 88.8786797,305.12132 C89.4215729,305.664214 90.1715729,306 91,306 L192,306 C193.656854,306 195,304.656854 195,303 C195,301.343146 193.656854,300 192,300 L94,300 Z M582,300 L484,300 C482.343146,300 481,301.343146 481,303 C481,304.656854 482.343146,306 484,306 L585,306 C585.828427,306 586.578427,305.664214 587.12132,305.12132 C587.664214,304.578427 588,303.828427 588,303 L588,95 C588,94.1715729 587.664214,93.4215729 587.12132,92.8786797 C586.578427,92.3357864 585.828427,92 585,92 L484,92 C482.343146,92 481,93.3431458 481,95 C481,96.6568542 482.343146,98 484,98 L582,98 L582,300 Z" id="Combined-Shape" fill="#F1F5FB"></path>
        <g id="Group-19" transform="translate(227.000000, 179.000000)" fill="#FFFFFF">
            <circle id="Oval" cx="18" cy="18" r="18"></circle>
            <circle id="Oval" cx="102" cy="18" r="18"></circle>
            <circle id="Oval" cx="186" cy="18" r="18"></circle>
        </g>
    </g>
</svg>