<?xml version="1.0" encoding="UTF-8"?>
<svg width="676px" height="546px" viewBox="0 0 676 546" version="1.1" xmlns="http://www.w3.org/2000/svg" xmlns:xlink="http://www.w3.org/1999/xlink">
    <!-- Generator: Sketch 55.2 (78181) - https://sketchapp.com -->
    <title>third partyembed skeleton </title>
    <desc>Created with Sketch.</desc>
    <g id="third-partyembed-skeleton-" stroke="none" stroke-width="1" fill="none" fill-rule="evenodd">
        <g id="Group-2" transform="translate(12.000000, 73.000000)" stroke="#F1F5FB">
            <g id="Group-8">
                <g id="Group-5">
                    <path d="M-0.5,8.00604746 C-0.5,3.30872445 3.31033442,-0.5 8.00846206,-0.5 L643.991538,-0.5 C648.692649,-0.5 652.5,3.30419772 652.5,8.00604746 L652.5,384.993953 C652.5,389.691276 648.689666,393.5 643.991538,393.5 L8.00846206,393.5 C3.30735057,393.5 -0.5,389.695802 -0.5,384.993953 L-0.5,8.00604746 Z" id="input"></path>
                </g>
            </g>
        </g>
        <path d="M28,16 L648,16 C656.836556,16 664,23.163444 664,32 L664,382 L12,382 L12,32 C12,23.163444 19.163444,16 28,16 Z M94,300 L94,98 L192,98 C193.656854,98 195,96.6568542 195,95 C195,93.3431458 193.656854,92 192,92 L91,92 C90.1715729,92 89.4215729,92.3357864 88.8786797,92.8786797 C88.3357864,93.4215729 88,94.1715729 88,95 L88,303 C88,303.828427 88.3357864,304.578427 88.8786797,305.12132 C89.4215729,305.664214 90.1715729,306 91,306 L192,306 C193.656854,306 195,304.656854 195,303 C195,301.343146 193.656854,300 192,300 L94,300 Z M582,300 L484,300 C482.343146,300 481,301.343146 481,303 C481,304.656854 482.343146,306 484,306 L585,306 C585.828427,306 586.578427,305.664214 587.12132,305.12132 C587.664214,304.578427 588,303.828427 588,303 L588,95 C588,94.1715729 587.664214,93.4215729 587.12132,92.8786797 C586.578427,92.3357864 585.828427,92 585,92 L484,92 C482.343146,92 481,93.3431458 481,95 C481,96.6568542 482.343146,98 484,98 L582,98 L582,300 Z" id="Combined-Shape" fill="#F1F5FB"></path>
        <g id="Group-19" transform="translate(227.000000, 179.000000)" fill="#FFFFFF">
            <circle id="Oval" cx="18" cy="18" r="18"></circle>
            <circle id="Oval" cx="102" cy="18" r="18"></circle>
            <circle id="Oval" cx="186" cy="18" r="18"></circle>
        </g>
        <path d="M37,400 L418,400 C422.970563,400 427,404.029437 427,409 C427,413.970563 422.970563,418 418,418 L37,418 C32.0294373,418 28,413.970563 28,409 C28,404.029437 32.0294373,400 37,400 Z" id="Rectangle-5" fill="#F1F5FB"></path>
        <path d="M37,430 L211,430 C215.970563,430 220,434.029437 220,439 C220,443.970563 215.970563,448 211,448 L37,448 C32.0294373,448 28,443.970563 28,439 C28,434.029437 32.0294373,430 37,430 Z" id="Rectangle-5" fill="#F1F5FB"></path>
    </g>
</svg>